<?xml version="1.0" encoding="utf-8"?><!DOCTYPE svg PUBLIC "-//W3C//DTD SVG 1.1//EN" "http://www.w3.org/Graphics/SVG/1.1/DTD/svg11.dtd"><svg version="1.1" baseProfile="full" xmlns="http://www.w3.org/2000/svg" xmlns:xlink="http://www.w3.org/1999/xlink" xmlns:ev="http://www.w3.org/2001/xml-events"   height="64px"   width="64px"   viewBox="0 0 119 119"><path stroke="rgb( 13, 4, 8 )" stroke-width="0px" stroke-linecap="butt" stroke-linejoin="miter" fill="rgb( 215, 88, 248 )" d="M62,52 C62,52 45.215,36.958 49.627,21.319 C54.04,5.68 65.954,0.381 77.424,3.617 C88.894,6.853 102.389,15.469 107.939,30.9 C107.939,30.9 91.49,35.194 91.49,35.194 C91.49,35.194 71.837,45.054 66.461,54.131 C66.461,54.131 62,52 62,52 Z "/><path stroke="rgb( 13, 4, 8 )" stroke-width="0px" stroke-linecap="butt" stroke-linejoin="miter" fill="rgb( 250, 58, 43 )" d="M64,50.2 C64,50.2 76.279,38 92.528,38 C108.778,38 118,48.449 118,60.367 C118,72.284 111.986,89.469 98.642,99 C98.642,99 89.472,82.733 89.472,82.733 C89.472,82.733 78.827,62.834 70.113,60.367 C70.113,60.367 64,50.2 64,50.2 Z "/><path stroke="rgb( 13, 4, 8 )" stroke-width="0px" stroke-linecap="butt" stroke-linejoin="miter" fill="rgb( 253, 236, 37 )" d="M69.606,60.329 C69.606,60.329 84.863,68.505 89.614,84.044 C94.365,99.584 87.069,111.458 75.672,114.942 C64.275,118.427 46.083,117.7 33.067,107.725 C33.067,107.725 45.942,94.2 45.942,94.2 C45.942,94.2 61.859,78.203 61.671,69.148 C61.671,69.148 69.606,60.329 69.606,60.329 Z "/><path stroke="rgb( 13, 4, 8 )" stroke-width="0px" stroke-linecap="butt" stroke-linejoin="miter" fill="rgb( 80, 232, 149 )" d="M62.217,68.518 C62.217,68.518 58.86,85.498 45.389,94.585 C31.917,103.672 18.428,100.166 11.764,90.286 C5.1,80.406 0.476,62.796 6.21,47.432 C6.21,47.432 22.908,55.79 22.908,55.79 C22.908,55.79 42.86,66.335 51.464,63.508 C51.464,63.508 62.217,68.518 62.217,68.518 Z "/><path stroke="rgb( 13, 4, 8 )" stroke-width="0px" stroke-linecap="butt" stroke-linejoin="miter" fill="rgb( 86, 151, 249 )" d="M55,64 C55,64 38.017,66.22 24,58 C9.983,49.78 7.865,36.913 13.893,26.633 C19.922,16.353 31.667,5.471 48,4 C48,4 48,21 48,21 C48,21 52.576,42.506 60,50 C60,50 55,64 55,64 Z "/><path stroke="rgb( 13, 4, 8 )" stroke-width="0px" stroke-linecap="butt" stroke-linejoin="miter" fill="rgb( 253, 252, 255 )" d="M61,50 C65.971,50 70,54.029 70,59 C70,63.971 65.971,68 61,68 C56.029,68 52,63.971 52,59 C52,54.029 56.029,50 61,50 Z "/></svg>