<?xml version="1.0" encoding="utf-8"?><!DOCTYPE svg PUBLIC "-//W3C//DTD SVG 1.1//EN" "http://www.w3.org/Graphics/SVG/1.1/DTD/svg11.dtd"><svg version="1.1" baseProfile="full" xmlns="http://www.w3.org/2000/svg" xmlns:xlink="http://www.w3.org/1999/xlink" xmlns:ev="http://www.w3.org/2001/xml-events"   height="64px"   width="64px"   viewBox="0 0 159 159"><path stroke="rgb( 230, 230, 230 )" stroke-width="1px" stroke-linecap="butt" stroke-linejoin="miter" fill="rgb( 255, 255, 255 )" d="M72,9 C111.764,9 144,41.236 144,81 C144,120.764 111.764,153 72,153 C32.236,153 0,120.764 0,81 C0,41.236 32.236,9 72,9 Z "/><path stroke="rgb( 13, 4, 8 )" stroke-width="0px" stroke-linecap="butt" stroke-linejoin="miter" fill="rgb( 132, 216, 57 )" d="M134.744,15.283 C125.139,7.234 109.414,10.48 92.006,21.519 C92.018,21.523 92.03,21.528 92.042,21.532 C88.169,24.022 68.504,37.067 58.228,51.69 C58.228,51.69 58.249,51.692 58.249,51.692 C52.814,55.764 48.61,62.183 46.534,69.859 C46.534,69.859 97.197,69.859 97.197,69.859 C93.596,56.547 83.619,46.972 71.865,46.972 C70.546,46.972 69.254,47.109 67.986,47.342 C67.986,47.342 75.297,37.239 97.248,23.632 C118.531,33.33 133.342,54.824 133.342,79.81 C133.342,81.825 133.238,83.815 133.05,85.78 C133.05,85.78 45.384,85.78 45.384,85.78 C47.288,102.107 58.417,114.638 71.865,114.638 C81.77,114.638 90.403,107.827 95.032,97.722 C95.032,97.722 130.701,97.722 130.701,97.722 C123.052,123.058 99.609,141.506 71.865,141.506 C51.283,141.506 33.077,131.345 21.919,115.76 C18.091,132.949 19.957,147.423 28.394,154.494 C31.005,156.682 34.654,157.573 39.043,157.337 C31.417,159 24.826,158.027 19.815,153.828 C10.083,145.673 9,126.865 15.74,104.979 C21.672,86.535 37.531,59.585 37.531,59.585 C25.538,72.247 17.713,84.87 12.589,96.164 C11.16,90.956 10.389,85.475 10.389,79.81 C10.389,45.736 37.913,18.114 71.865,18.114 C74.604,18.114 77.295,18.312 79.939,18.66 C102.146,2.741 121.178,0 132.84,9.772 C138.001,14.098 140.657,20.81 141,29.123 C140.21,22.94 138.127,18.117 134.744,15.283 Z "/></svg>