<?xml version="1.0" encoding="utf-8"?><!DOCTYPE svg PUBLIC "-//W3C//DTD SVG 1.1//EN" "http://www.w3.org/Graphics/SVG/1.1/DTD/svg11.dtd"><svg version="1.1" baseProfile="full" xmlns="http://www.w3.org/2000/svg" xmlns:xlink="http://www.w3.org/1999/xlink" xmlns:ev="http://www.w3.org/2001/xml-events"  height="64px" width="64px" viewBox="0 0 480 480"><path fill="rgb( 247, 253, 255 )" d="M240,0 C372.548,0 480,107.452 480,240 C480,372.548 372.548,480 240,480 C107.452,480 0,372.548 0,240 C0,107.452 107.452,0 240,0 Z "/><path fill="rgb( 72, 138, 201 )" d="M152.195,242.927 C152.195,194.434 191.507,155.122 240,155.122 C288.493,155.122 327.805,194.434 327.805,242.927 C327.805,291.42 288.493,330.732 240,330.732 C191.507,330.732 152.195,291.42 152.195,242.927 Z "/><path fill="rgb( 77, 185, 74 )" d="M240,348.293 C253.3,348.293 266.012,345.804 277.729,341.307 C277.729,341.307 198.571,476.363 198.571,476.363 C85.778,456.725 0,358.412 0,240 C0,190.111 15.232,143.784 41.285,105.397 C41.285,105.397 140.212,276.745 140.212,276.745 C154.306,318.341 193.642,348.293 240,348.293 Z "/><path fill="rgb( 252, 210, 9 )" d="M240,480 C232.967,480 226.022,479.634 219.143,479.041 C219.143,479.041 310.021,321.635 310.021,321.635 C331.699,302.336 345.366,274.234 345.366,242.927 C345.366,206.549 326.931,174.478 298.893,155.545 C298.893,155.545 465.103,156.633 465.103,156.633 C474.725,182.603 480,210.683 480,240 C480,372.548 372.548,480 240,480 Z "/><path fill="rgb( 232, 71, 63 )" d="M240,137.561 C184.201,137.561 138.562,180.943 134.9,235.814 C134.9,235.814 52.289,90.539 52.289,90.539 C96.262,35.385 163.979,0 240,0 C335.044,0 417.172,55.255 456.045,135.388 C456.045,135.388 456.585,139.4 456.585,139.4 C456.585,139.4 259.546,139.4 259.546,139.4 C253.209,138.211 246.682,137.561 240,137.561 Z "/></svg>