<?xml version="1.0" encoding="utf-8"?><!DOCTYPE svg PUBLIC "-//W3C//DTD SVG 1.1//EN" "http://www.w3.org/Graphics/SVG/1.1/DTD/svg11.dtd"><svg version="1.1" baseProfile="full" xmlns="http://www.w3.org/2000/svg" xmlns:xlink="http://www.w3.org/1999/xlink" xmlns:ev="http://www.w3.org/2001/xml-events"   height="136px"   width="96px" ><path fill="rgb( 255, 240, 0 )" d="M14,31 C14,31 82,31 82,31 C82,31 82,120 82,120 C82,120 14,120 14,120 C14,120 14,31 14,31 Z "/><path fill="rgb( 239, 133, 69 )" d="M72.463,0 C72.463,0 78.545,0 78.545,0 C78.545,0 78.545,12.484 78.545,12.484 C78.545,12.484 87.008,12.484 87.008,12.484 C87.008,12.484 87.008,18.5940000000001 87.008,18.5940000000001 C87.008,18.5940000000001 72.463,18.5940000000001 72.463,18.5940000000001 C72.463,18.5940000000001 72.463,0 72.463,0 ZM63.207,9.56299999999999 C63.207,9.56299999999999 58.975,15.937 58.975,15.937 C58.975,15.937 54.744,9.29700000000003 54.744,9.29700000000003 C54.744,9.29700000000003 54.744,18.5940000000001 54.744,18.5940000000001 C54.744,18.5940000000001 48.926,18.5940000000001 48.926,18.5940000000001 C48.926,18.5940000000001 48.926,0.26599999999996 48.926,0.26599999999996 C48.926,0.26599999999996 55.273,0.26599999999996 55.273,0.26599999999996 C55.273,0.26599999999996 58.975,6.64099999999996 58.975,6.64099999999996 C58.975,6.64099999999996 62.942,0 62.942,0 C62.942,0 69.289,0 69.289,0 C69.289,0 69.289,18.5940000000001 69.289,18.5940000000001 C69.289,18.5940000000001 63.207,18.5940000000001 63.207,18.5940000000001 C63.207,18.5940000000001 63.207,9.56299999999999 63.207,9.56299999999999 ZM40.727,18.5940000000001 C40.727,18.5940000000001 34.645,18.5940000000001 34.645,18.5940000000001 C34.645,18.5940000000001 34.645,6.10900000000004 34.645,6.10900000000004 C34.645,6.10900000000004 29.355,6.10900000000004 29.355,6.10900000000004 C29.355,6.10900000000004 29.355,0 29.355,0 C29.355,0 46.0170000000001,0 46.0170000000001,0 C46.0170000000001,0 46.0170000000001,6.375 46.0170000000001,6.375 C46.0170000000001,6.375 40.727,6.375 40.727,6.375 C40.727,6.375 40.727,18.5940000000001 40.727,18.5940000000001 ZM20.628,12.484 C20.628,12.484 15.074,12.484 15.074,12.484 C15.074,12.484 15.074,18.5940000000001 15.074,18.5940000000001 C15.074,18.5940000000001 8.72699999999998,18.5940000000001 8.72699999999998,18.5940000000001 C8.72699999999998,18.5940000000001 8.72699999999998,0 8.72699999999998,0 C8.72699999999998,0 15.074,0 15.074,0 C15.074,0 15.074,6.10900000000004 15.074,6.10900000000004 C15.074,6.10900000000004 20.628,6.10900000000004 20.628,6.10900000000004 C20.628,6.10900000000004 20.628,0 20.628,0 C20.628,0 26.446,0 26.446,0 C26.446,0 26.446,18.5940000000001 26.446,18.5940000000001 C26.446,18.5940000000001 20.628,18.5940000000001 20.628,18.5940000000001 C20.628,18.5940000000001 20.628,12.484 20.628,12.484 ZM87.008,125.375 C87.008,125.375 47.833,136 47.833,136 C47.833,136 8.46299999999997,125.375 8.46299999999997,125.375 C8.46299999999997,125.375 0,27.0940000000001 0,27.0940000000001 C0,27.0940000000001 96,27.0940000000001 96,27.0940000000001 C96,27.0940000000001 87.008,125.375 87.008,125.375 ZM17.7190000000001,47.016 C17.7190000000001,47.016 20.893,83.4059999999999 20.893,83.4059999999999 C20.893,83.4059999999999 62.413,83.4059999999999 62.413,83.4059999999999 C62.413,83.4059999999999 61.091,99.078 61.091,99.078 C61.091,99.078 47.603,102.797 47.603,102.797 C47.603,102.797 34.38,99.3440000000001 34.38,99.3440000000001 C34.38,99.3440000000001 33.587,89.516 33.587,89.516 C33.587,89.516 21.421,89.516 21.421,89.516 C21.421,89.516 23.273,108.375 23.273,108.375 C23.273,108.375 47.8680000000001,115.547 47.8680000000001,115.547 C47.8680000000001,115.547 72.198,108.375 72.198,108.375 C72.198,108.375 75.636,71.453 75.636,71.453 C75.636,71.453 32,71.453 32,71.453 C32,71.453 30.942,58.9690000000001 30.942,58.9690000000001 C30.942,58.9690000000001 76.9589999999999,58.9690000000001 76.9589999999999,58.9690000000001 C76.9589999999999,58.9690000000001 78.0170000000001,47.016 78.0170000000001,47.016 C78.0170000000001,47.016 17.7190000000001,47.016 17.7190000000001,47.016 Z "/></svg>