<?xml version="1.0" encoding="utf-8"?><!DOCTYPE svg PUBLIC "-//W3C//DTD SVG 1.1//EN" "http://www.w3.org/Graphics/SVG/1.1/DTD/svg11.dtd"><svg version="1.1" baseProfile="full" xmlns="http://www.w3.org/2000/svg" xmlns:xlink="http://www.w3.org/1999/xlink" xmlns:ev="http://www.w3.org/2001/xml-events"   height="64px"   width="64px"  viewBox="0 0 171 171" ><path stroke="rgb( 13, 4, 8 )" stroke-width="0px" stroke-linecap="butt" stroke-linejoin="miter" fill="rgb( 25, 182, 245 )" d="M171,89.779 C171,92.903 170.786,95.975 170.413,98.998 C170.413,98.998 63.596,98.998 63.596,98.998 C65.618,119.403 79.628,131.774 96.648,131.774 C108.819,131.774 119.423,125.431 125.231,114.362 C125.231,114.362 166.839,114.362 166.839,114.362 C156.656,143.577 128.856,164.551 96.135,164.551 C84.629,164.551 73.734,161.952 63.994,157.321 C39.173,168.811 17.784,171 8.934,161.705 C0,152.323 3.209,128.536 16.085,102.212 C34.379,66.268 60.241,42.663 60.241,42.663 C45.128,49.233 30.936,63.234 23.581,71.294 C31.82,38.94 61.177,15.007 96.135,15.007 C97.792,15.007 99.431,15.08 101.061,15.186 C128.407,1.383 152.165,0 162.17,10.508 C169.801,18.522 169.884,35.447 162.654,55.484 C167.976,65.759 171,77.413 171,89.779 ZM25.959,115.858 C17.639,132.513 14.178,147.579 19.852,156.822 C23.858,163.348 39.698,162.76 59.404,154.926 C44.113,146.307 32.157,132.488 25.959,115.858 ZM96.648,47.784 C80.218,47.784 66.575,59.504 63.83,78.512 C63.83,78.512 129.465,78.512 129.465,78.512 C126.72,59.504 113.077,47.784 96.648,47.784 ZM160.447,17.616 C154.039,10.886 138.931,11.785 121.153,19.3 C137.127,24.957 150.598,35.874 159.496,49.97 C165.444,35.303 166.403,23.872 160.447,17.616 Z "/></svg>